<?xml version="1.0" encoding="utf-8"?>
<svg xmlns="http://www.w3.org/2000/svg" viewBox="0 0 24 24" width="96" height="96">
  <path d="M16.707031 2.2929688L15.292969 3.7070312L17.585938 6L17 6C10.936593 6 6 10.936593 6 17L6 18L8 18L8 17C8 12.017407 12.017407 8 17 8L17.585938 8L15.292969 10.292969L16.707031 11.707031L21.414062 7L16.707031 2.2929688 z M 2 8L2 9L2 19C2 20.64497 3.3550302 22 5 22L19 22C20.64497 22 22 20.64497 22 19L22 18L22 17L20 17L20 18L20 19C20 19.56503 19.56503 20 19 20L5 20C4.4349698 20 4 19.56503 4 19L4 9L4 8L2 8 z" fill="#808080" />
</svg>